<svg xmlns="http://www.w3.org/2000/svg" width="800" height="200" version="1.0" viewBox="0 0 600 150"><defs><clipPath id="a"><path d="M448 1.262h150v148.5H448Zm0 0"/></clipPath><clipPath id="b"><path d="M2 69h390v80.762H2Zm0 0"/></clipPath><clipPath id="c"><path d="M379 100h41v49.762h-41Zm0 0"/></clipPath></defs><g clip-path="url(#a)"><path fill="#fff" d="M463.508 65.363c18.027-19.781 37.808-23.789 54.336-39.062 10.515-9.516 13.77-18.531 15.773-23.29.25-.25.25-.5.25-.75-.25-.25-.5-.25-.75-.25-4.258-.75-11.27-1-16.777-.5-4.508.5-9.766 1.25-13.02 2.255-.25 0-.5.25-.75.25-.25.25-.25.25-.25.5-2.757 9.765-18.28 20.78-22.035 23.789-5.512 4.504-10.265 8.511-15.023 13.52-4.008 4.257-8.016 9.265-10.77 14.273-3.004 5.007-4.508 10.265-5.258 15.273-.75 4.258-.75 8.262-.5 11.27v1c.5 4.507 1.25 6.511 1.25 6.761 0 .5.254.75.504.75s.25-.5.5-.75c0-.25.5-2.004 1-3.507.5-1.75.754-2.504 1.254-4.254 1.25-4.258 4.004-10.52 10.266-17.278m133.96 2.504c0-.254 0-.754-.25-.754-.25-.25-.25-.25-.75-.25-4.507-.25-9.515-.5-15.277-.5-32.3.5-73.363 8.512-91.644 26.293-8.512 8.262-12.77 19.028-9.512 32.301 3.504 15.023 16.024 21.781 24.035 24.035 4.008 1.004 7.012.754 7.012.754s.5 0 .5-.254c0-.25-.5-.5-.5-.5s-1.5-1.25-2.254-2.004c-.75-1-1.25-1.5-2.004-2.504-1.25-1.75-2.504-4.254-3.504-7.761-2.004-7.512.25-14.27 5.508-20.032 9.016-9.515 29.297-15.773 64.352-15.773l19.28.25s.5 0 .75-.25.25-.25.5-.75c1.255-3.258 2.759-9.266 3.509-16.527 1-4.758.75-10.266.25-15.774Zm0 0"/></g><path fill="#fff" d="M540.379 63.61c24.289-2.755 42.566-3.005 55.336-1.505h.754v-.75c-1.254-6.761-4.258-15.023-7.766-21.285-.75-1.5-2-3.504-3.004-5.008-.25-.5-.25-.25-.5-.5s-1-.25-1-.25c-2.004-.25-6.761-.5-12.52-.5-10.015-.25-22.284 1-36.058 3.754-20.281 4.008-37.808 10.77-52.082 20.032-15.273 10.015-26.793 21.285-31.047 39.312-.754 2.754 1 8.016 3.004 12.02a46 46 0 0 0 3.754 6.261l.5.5c.254 0 .254-.25.254-.5.25-1.254.5-3.757 2-7.261 2.254-6.512 7.762-20.032 31.05-31.051 15.274-7.762 31.801-11.266 47.325-13.27Zm0 0"/><path fill="#d8d8d8" d="M583.445 72.371h-6.758v7.766h-7.765v6.758h7.765v7.761h6.758v-7.761h7.762v-6.758h-7.762Zm0 0"/><g clip-path="url(#b)"><path fill="#fff" d="M131.734 101.418h-16.023c-1.004 0-1.004.5-1.004 1.504 0 1.25 0 1.25 1.504 1.25 2.504 0 5.258.5 5.258 3.508 0 2-1.754 6.257-3.004 9.261-2.254 5.258-6.262 13.774-9.516 21.036-2.004-6.012-9.515-28.297-9.515-30.297 0-2.754 2.004-2.754 5.257-3.008 1.254-.25 1.504-.25 1.504-1.75 0-1.004 0-1.504-1.254-1.504h-20.78c-1 0-1.255.5-1.255 1.504 0 .75 0 1 .754 1.25 2.004.25 2.754.5 3.754 1.504 1.004 1.25 2.504 5.008 4.508 10.265-2.254 5.008-8.512 18.028-10.516 22.036-3.758-9.266-5.508-14.024-7.261-18.532-1.754-4.757-3.508-9.765-3.508-11.765 0-2.004 1.004-3.008 4.508-3.258 1.253 0 1.503-.25 1.503-1.5 0-.754 0-1.504-.5-1.504h-19.78c-1.005 0-1.255.25-1.255 1.254 0 1.25 0 1.25 1.504 2 1 .504 2.004 2.004 3.754 5.512 4.258 9.011 10.52 26.039 14.524 37.058.75 1.75.75 2 1.253 2l4.004-.5c.754 0 .754 0 1.254-1.25 3.504-7.762 5.258-11.27 12.77-26.043 4.008 11.02 7.011 20.531 8.261 25.29.754 2.503.754 2.753 1.504 2.503l2.754-.25q1.502 0 2.254-1.5c.25-.754 2.004-4.508 2.754-6.262 3.504-7.761 8.012-17.527 10.766-22.785s6.761-12.52 9.265-13.773c.75-.5 1.004-.75 1.004-1.75 0-1.004-.254-1.504-1.004-1.504m-98.406 7.512c-13.02-5.758-18.277-8.012-18.277-16.274 0-7.511 5.758-12.27 13.27-12.27 4.007 0 8.015 1 10.769 3.005 3.754 2.504 5.008 6.007 6.008 9.265.5 1.75.75 2 1.254 2 1 0 2.503-.25 2.503-1.5 0-.5-.25-3.758-.503-6.011-.25-2.754 0-8.512 0-9.262 0-.754 0-1.004-.75-1.004h-1c-.25.25-.754.5-1.004.5s-2.754-.25-5.758-.75c-3.004-.25-7.012-.5-9.766-.5-16.023 0-24.539 8.262-24.539 19.531 0 3.504 1.004 8.012 4.758 11.77 3.254 3.254 6.512 4.754 15.273 8.761 11.52 5.258 16.528 7.762 16.528 15.524s-6.262 13.023-14.524 13.023c-6.008 0-11.265-1.754-15.273-4.508-3.254-2.753-5.258-6.511-6.262-11.02-.25-1-.25-1.75-1-1.75-2.004 0-2.754 1.25-2.754 2.255 0 3.004 1 12.265 1.754 17.023.25 1.754.25 2.004 1.5 2.004 1.254 0 1.254-1 2.754-1 1.754 0 9.266 1.75 18.281 1.75 10.766 0 16.024-2.504 19.532-5.008 3.753-2.754 7.261-8.011 7.261-14.77-.504-12.269-11.02-16.776-20.035-20.784m126.703 36.808c-4.258-.25-6.511-.5-7.011-3.758-.5-2.503-.5-14.773-.5-18.277 0-8.512.25-13.52.25-16.273 0-1.754.25-5.262.5-6.762 0-.754-.25-1.004-1.004-1.004-.75 0-1.75.25-2.754.754-2.754 1-9.516 4.508-11.766 5.258-1.004.5-1.504.75-1.504 2.004 0 1.25 0 1.25 2.004 1.5 5.258.754 5.258 2.254 5.258 13.773 0 6.508 0 15.524-1.004 18.527-.75 2.504-2 3.258-5.758 4.008-1.5.25-1.754.5-1.754 1.754 0 1 .254 1.25 1.004 1.25 2.004 0 8.262-.25 12.77-.25 5.508 0 10.515.25 12.02.25 1 0 1.25-.25 1.25-1.504 0-1-.25-1.25-2-1.25Zm-11.27-60.847c3.005 0 6.009-3.004 6.009-6.008 0-2.754-3.004-5.758-5.758-5.758-2.504 0-6.008 3.004-6.008 6.008.25 2.754 3.254 5.758 5.758 5.758Zm39.313 36.558c-8.515-4.004-11.52-6.008-11.52-10.265 0-2.004 1.005-6.762 7.762-6.762 7.262 0 10.266 5.258 11.52 8.016.5 1.25.75 1.5 1.25 1.5 2.004 0 2.254-.25 2.254-1.25 0-1.754-.5-6.762-.75-9.266-.25-1.754-.25-2.004-1-2.004-.504 0-1.254.25-1.504.25-.75 0-5.508-1-9.516-1-14.523 0-18.277 8.262-18.277 13.27 0 8.011 6.762 11.269 13.02 14.023 7.261 3.504 11.269 5.758 11.269 10.516 0 2.753-1.754 7.511-8.766 7.511-4.004 0-11.52-1.754-13.77-10.265-.503-1.754-.503-2.004-1.253-2.004-1.25 0-2.004.25-2.004 1.004 0 1 .5 5.007.5 6.757v5.508c0 1.004.254 1.504 1.004 1.504.5 0 1.25-.25 1.5-.25.504 0 1.254.25 2.254.25 2.004.25 5.762 1 10.52 1 6.507 0 19.78-2 19.78-13.52-.753-8.261-8.265-11.769-14.273-14.523m41.567 0c-8.516-4.004-11.52-6.008-11.52-10.265 0-2.004 1-6.762 7.762-6.762 7.262 0 10.265 5.258 11.52 8.016.5 1.25.75 1.5 1.25 1.5 2.003 0 2.253-.25 2.253-1.25 0-1.754-.5-6.762-.75-9.266-.25-1.754-.25-2.004-1.004-2.004-.5 0-1.25.25-1.5.25-.75 0-5.507-1-9.515-1-14.524 0-18.278 8.262-18.278 13.27 0 8.011 6.758 11.269 13.02 14.023 7.262 3.504 11.266 5.758 11.266 10.516 0 2.753-1.75 7.511-8.762 7.511-4.008 0-11.52-1.754-13.774-10.265-1-1.504-1-1.754-1.75-1.754-1.254 0-2.004.25-2.004 1.004 0 1 .5 5.007.5 6.757v5.512c0 1 .25 1.5 1 1.5.504 0 1.254-.25 1.504-.25.5 0 1.254.25 2.254.25 2.004.25 5.758 1.004 10.516 1.004 6.512 0 19.781-2.004 19.781-13.523-.25-8.512-7.762-12.02-13.77-14.774Zm75.867 7.762c-.75 0-1 1.004-1.25 2.504-1.254 4.008-3.258 7.762-6.262 9.515-4.004 2.254-11.516 2.254-18.527 2.254-4.758 0-6.512 0-7.012-2.754-.75-3.253-1.004-15.273-1.004-25.539 0-7.261 0-25.039 1.004-29.296.75-3.758 2.754-4.758 7.512-5.258 2.004-.25 2.004-.25 2.004-2.004 0-1.004-.5-1.254-1.254-1.254-2.754 0-10.016.504-14.02.504-3.258 0-9.765-.504-13.273-.504-1 0-1.25 0-1.25 1.754 0 1.004.25 1.004 2.754 1.504 5.757 1 6.257 3.004 6.257 10.515v16.278c0 9.261 0 23.035-.75 30.047-.5 4.003-1 7.511-7.511 8.261-1.754.25-2.004.25-2.004 1.754 0 1 .25 1.5 1.254 1.5 1.25 0 5.758-.5 25.039-.5 20.781 0 22.785.5 25.039.5 1 0 1.25-1 2.004-3.254 2.254-8.511 3.004-13.52 3.004-15.273.75-.75.5-1.254-1.754-1.254m31.8 16.527c-4.257-.25-6.511-.5-7.011-3.758-.5-2.503-.5-14.773-.5-18.277 0-8.512.25-13.52.25-16.273 0-1.754.25-5.262.5-6.762 0-.754-.25-1.004-1-1.004s-1.754.25-2.754.754c-2.754 1-9.516 4.508-11.77 5.258-1 .5-1.503.75-1.503 2.004 0 1.25 0 1.25 2.003 1.5 5.258.754 5.258 2.254 5.258 13.773 0 6.508 0 15.524-1 18.527-.75 2.504-2.004 3.258-5.758 4.008-1.503.25-1.753.5-1.753 1.754 0 1 .25 1.25 1 1.25 2.003 0 8.265-.25 12.773-.25 5.508 0 10.516.25 12.016.25 1.003 0 1.253-.25 1.253-1.504-.25-1-.5-1.25-2.003-1.25ZM326.04 84.891c3.008 0 6.012-3.004 6.012-6.008 0-2.754-3.004-5.758-5.758-5.758-2.504 0-6.012 3.004-6.012 6.008.25 2.754 3.254 5.758 5.758 5.758m50.082 16.777h-15.527c0-17.527.504-24.79 12.52-24.79 5.761 0 8.265 1.755 10.019 3.005 1.25 1.004 2 2.004 2.754 2.004 1 0 6.008-2.254 6.008-4.758 0-3.004-4.758-7.262-13.27-7.262-9.016 0-17.027 5.258-21.785 11.27-5.008 6.511-5.258 10.765-5.258 20.531l-6.012 2.754c-.5.25-.5.504-.5 1.754 0 1 0 1 .75 1h5.762c0 8.015 0 23.039-.25 30.3-.25 6.258-1.004 7.262-5.762 8.012-1.25.25-1.5.25-1.5 1.754 0 .75 0 1.5.75 1.5 1.754 0 6.512-.25 10.266-.25 5.258 0 13.523.25 15.023.25 2.004 0 2.254-.25 2.254-1.754 0-1.25 0-1.5-1.5-1.5-7.511 0-9.515-1.004-9.765-7.261 0-6.762-.25-20.782-.25-31.051h15.273c1.5 0 1.5-.5 1.5-2.754-.5-2.504-.5-2.754-1.5-2.754m0 0"/></g><g clip-path="url(#c)"><path fill="#fff" d="M419.188 138.477c0-.5-.25-.25-.75 0-5.258 4.007-10.77 5.007-14.274 5.007-11.77 0-14.773-10.765-15.023-18.527 10.015-2.004 19.78-4.008 30.046-5.512.5 0 0-3.504-.75-6.257-2.753-9.766-11.269-12.52-16.527-12.52-10.515 0-22.535 9.516-22.535 27.043 0 8.512 3.254 22.285 19.531 22.285 7.762 0 15.024-3.508 19.281-7.262 1-.754 1.25-1.254 1.25-2.004 0-1 0-1.503-.25-2.253Zm-20.532-34.055c5.508 0 10.016 6.262 10.016 10.266 0 1.003-.5 2.003-4.008 3.007-8.012 2-11.016 2.754-15.523 3.504 0-8.261 3.004-16.777 9.515-16.777m0 0"/></g></svg>