<svg xmlns="http://www.w3.org/2000/svg" width="1080" height="1080" version="1.0" viewBox="0 0 810 810"><defs><clipPath id="a"><path d="M35.367 592.29h55.559v55.558H35.367Zm0 0"/></clipPath><clipPath id="b"><path d="M63.145 592.29c-15.34 0-27.778 12.437-27.778 27.776 0 15.344 12.438 27.782 27.778 27.782 15.343 0 27.78-12.438 27.78-27.782 0-15.34-12.437-27.777-27.78-27.777Zm0 0"/></clipPath><clipPath id="c"><path d="M213.027 510.023h11.953v12.274h-11.953Zm0 0"/></clipPath><clipPath id="d"><path d="M224.98 514.238c-.199 4.375-2.035 6.621-3.257 7.434-.918.508-1.836.715-2.953.508-1.43-.301-3.875-1.73-4.793-2.95-.711-.816-.91-1.734-.91-2.753.097-1.528 1.32-4.176 2.34-5.196.714-.71 1.628-1.117 2.644-1.219 1.531-.105 5.402 1.731 5.402 1.731"/></clipPath><clipPath id="e"><path d="M212.625 537.133h30.938v14.926h-30.938Zm0 0"/></clipPath><clipPath id="f"><path d="M219.79 537.16c20.167 2.34 20.78 2.649 21.593 3.465.918.91 1.836 2.746 2.137 4.074.109 1.121 0 2.137-.403 3.156-.613 1.223-2.035 2.75-3.16 3.465-.914.512-2.953.813-3.059.711-.101-.199 5.301-2.746 5.301-2.648.102.101-2.035 2.14-3.363 2.34-1.73.41-4.684-.098-6.012-1.22-1.422-1.12-2.441-3.972-2.34-5.702 0-1.43.711-2.856 1.63-3.774.917-1.02 2.445-1.832 3.667-2.039 1.324-.199 3.055 0 4.176.617 1.223.61 2.344 1.832 2.953 3.055.512 1.121.719 2.852.512 4.176-.305 1.223-1.02 2.75-2.14 3.566-1.427 1.02-4.278 1.832-6.012 1.43-1.73-.512-3.766-2.656-4.485-4.184-.61-1.32-.71-2.949-.097-4.175.917-1.73 4.582-4.278 6.316-4.582 1.121-.203 2.14.207 3.059.816 1.117.711 2.546 2.137 3.054 3.465.512 1.32.512 3.258 0 4.683-.508 1.32-2.035 2.75-3.16 3.465-.914.512-1.629.61-3.059.711-3.257.203-12.628-1.324-16.601-2.136-2.246-.512-3.875-.41-5.094-1.528-1.328-1.12-2.547-3.566-2.547-5.195-.101-1.43.61-3.164 1.63-4.074 1.218-1.125 5.503-1.938 5.503-1.938"/></clipPath><clipPath id="g"><path d="M229.938 538.75h15.187v12.602h-15.188Zm0 0"/></clipPath><clipPath id="h"><path d="M237.207 538.79c6.93 2.745 8.05 5.194 7.844 6.929-.102 1.629-1.832 3.968-3.16 4.785-1.118.71-2.645.918-3.868.71-1.226-.202-2.652-.71-3.464-1.73-1.02-1.324-2.036-3.87-1.63-5.601.305-1.63 2.04-3.77 3.669-4.485 1.527-.609 4.277-.41 5.703.61 1.426.918 2.75 3.363 2.75 4.992.105 1.738-1.121 4.176-2.547 5.195-1.73 1.125-5.399 1.125-7.434.617a7 7 0 0 1-3.773-2.144c-.813-1.121-1.32-2.848-1.32-4.176.097-1.426.71-3.054 1.828-3.972 1.125-1.122 5.402-1.73 5.402-1.73"/></clipPath></defs><path fill="none" stroke="#fff" stroke-width="55.013" d="M63.145 620.066h86.62a24.62 24.62 0 0 0 17.419-7.218 24.6 24.6 0 0 0 7.214-17.418 24.64 24.64 0 0 1 7.22-17.418 24.63 24.63 0 0 1 17.417-7.219H371.56c105.164 0 190.422-85.25 190.422-190.422v-83.945A106.47 106.47 0 0 1 668.45 189.953h106.477"/><path fill="none" stroke="#fff" stroke-width="55.013" d="M63.145 620.066h58.925c28.903 0 52.328-23.425 52.328-52.324 0-28.902 23.426-52.328 52.325-52.328h14.738a67.06 67.06 0 0 0 47.422-19.64 67.07 67.07 0 0 0 19.64-47.422v-95.664c0-43.16 17.145-84.551 47.665-115.07a162.73 162.73 0 0 1 115.066-47.665h303.672"/><g clip-path="url(#a)"><g clip-path="url(#b)"><path fill="#fff" d="M35.367 592.29h55.559v55.558H35.367Zm0 0"/></g></g><g clip-path="url(#c)"><g clip-path="url(#d)"><path fill="#fff" d="M208.988 505.988h20.27v20.266h-20.27Zm0 0"/></g></g><g clip-path="url(#e)"><g clip-path="url(#f)"><path fill="#fff" d="M208.582 533.086h39.031v23.02h-39.031Zm0 0"/></g></g><g clip-path="url(#g)"><g clip-path="url(#h)"><path fill="#fff" d="M225.898 534.715h23.348v20.68h-23.348Zm0 0"/></g></g></svg>