<svg xmlns="http://www.w3.org/2000/svg" width="222" height="235" fill="none"><path fill="#ED1B62" d="M71.219 184.938 111 130.312v95z"/><path fill="#AE0003" d="M36.781 150.5 111 130.312l-39.781 54.626z"/><path fill="#ED1B62" d="M6.5 117.25 111 130.312 36.781 150.5z"/><path fill="#AE0003" d="M61.125 8 111 130.312v-93.2z"/><path fill="#ED1B62" d="M6.5 49.563 111 130.311 61.125 8z"/><path fill="#AE0003" d="M6.5 117.25 111 130.312 6.5 49.562zm144.281 67.688L111 130.312v95z"/><path fill="#ED1B62" d="M185.219 150.5 111 130.312l39.781 54.626z"/><path fill="#AE0003" d="M215.5 117.25 111 130.312l74.219 20.188z"/><path fill="#ED1B62" d="M160.875 8 111 130.312v-93.2z"/><path fill="#AE0003" d="M215.5 49.563 111 130.311 160.875 8z"/><path fill="#ED1B62" d="M215.5 117.25 111 130.312l104.5-80.75z"/><path stroke="#fff" stroke-width="12" d="M6.5 49.5 61 8l50 29 50-29 54.5 41.566V117.5L111 225.5 6.5 117.285z"/></svg>